<svg width="32" height="32" viewBox="0 0 32 32" fill="none" xmlns="http://www.w3.org/2000/svg">
<g clip-path="url(#clip0)">
<path d="M30.9084 6.25H1.09155C0.489746 6.25 0 6.73975 0 7.34155V24.6199C0 25.2217 0.489746 25.7112 1.09155 25.7112H30.9084C31.5103 25.7112 32 25.2217 32 24.6199V7.34155C32 6.73975 31.5103 6.25 30.9084 6.25V6.25ZM1.87695 8.93921L10.8462 14.9006L1.87695 22.7083V8.93921ZM16 16.0723L4.0459 8.12695H27.9541L16 16.0723ZM12.4673 15.9778L15.3958 17.9243C15.5793 18.0464 15.7896 18.1074 16 18.1074C16.2102 18.1074 16.4207 18.0461 16.6042 17.9243L19.5327 15.9778L28.5579 23.8342H3.44214L12.4673 15.9778ZM21.1538 14.9004L30.123 8.93896V22.7083L21.1538 14.9004Z" fill="#58876D"/>
</g>
<defs>
<clipPath id="clip0">
<rect width="32" height="32" fill="white"/>
</clipPath>
</defs>
</svg>
