<svg width="32" height="33" viewBox="0 0 32 33" fill="none" xmlns="http://www.w3.org/2000/svg">
<g clip-path="url(#clip0)">
<path d="M18.1605 32H13.0259C12.1683 32 11.4706 31.3023 11.4706 30.4447V18.8635H8.47505C7.61741 18.8635 6.91976 18.1656 6.91976 17.3082V12.3456C6.91976 11.488 7.61741 10.7904 8.47505 10.7904H11.4706V8.30528C11.4706 5.84124 12.2444 3.74486 13.7079 2.24315C15.1781 0.734589 17.2326 -0.0626221 19.6495 -0.0626221L23.5653 -0.056262C24.4215 -0.0547943 25.1179 0.642857 25.1179 1.49902V6.10665C25.1179 6.96429 24.4205 7.66194 23.5631 7.66194L20.9266 7.66292C20.1226 7.66292 19.9178 7.82412 19.874 7.87353C19.8019 7.95548 19.716 8.18713 19.716 8.82681V10.7901H23.365C23.6397 10.7901 23.9058 10.8579 24.1345 10.9856C24.6279 11.2613 24.9347 11.7825 24.9347 12.3459L24.9327 17.3085C24.9327 18.1656 24.2351 18.8633 23.3774 18.8633H19.716V30.4447C19.716 31.3023 19.0181 32 18.1605 32ZM13.3503 30.1204H17.8361V18.022C17.8361 17.4494 18.3021 16.9836 18.8745 16.9836H23.0531L23.0548 12.67H18.8743C18.3019 12.67 17.8361 12.2043 17.8361 11.6316V8.82681C17.8361 8.09247 17.9107 7.25734 18.465 6.62965C19.1348 5.87084 20.1903 5.78327 20.9261 5.78327L23.2383 5.78229V1.8229L19.648 1.81703C15.7639 1.81703 13.3503 4.30333 13.3503 8.30528V11.6316C13.3503 12.204 12.8845 12.67 12.3121 12.67H8.79941V16.9836H12.3121C12.8845 16.9836 13.3503 17.4494 13.3503 18.022V30.1204ZM23.5616 1.82339H23.5619H23.5616Z" fill="#58876D"/>
</g>
<defs>
<clipPath id="clip0">
<rect width="32" height="32.0626" fill="white"/>
</clipPath>
</defs>
</svg>
