<svg width="95" height="16" viewBox="0 0 95 16" fill="none" xmlns="http://www.w3.org/2000/svg">
<path d="M5.346 2.616C4.914 2.64 4.596 2.688 4.392 2.76C4.2 2.832 4.068 2.97 3.996 3.174C3.924 3.378 3.888 3.708 3.888 4.164V13.092C3.888 13.548 3.924 13.878 3.996 14.082C4.068 14.286 4.2 14.424 4.392 14.496C4.596 14.556 4.914 14.586 5.346 14.586H6.66C7.404 14.586 7.968 14.484 8.352 14.28C8.748 14.064 9.036 13.722 9.216 13.254C9.396 12.786 9.528 12.108 9.612 11.22H10.026C9.99 11.592 9.972 12.084 9.972 12.696C9.972 13.38 10.014 14.148 10.098 15C9.282 14.964 7.908 14.946 5.976 14.946C3.672 14.946 1.932 14.964 0.756 15V14.64C1.188 14.616 1.5 14.568 1.692 14.496C1.896 14.424 2.034 14.286 2.106 14.082C2.178 13.878 2.214 13.548 2.214 13.092V4.164C2.214 3.708 2.178 3.378 2.106 3.174C2.034 2.97 1.896 2.832 1.692 2.76C1.5 2.688 1.188 2.64 0.756 2.616V2.256C1.26 2.292 2.028 2.31 3.06 2.31C4.02 2.31 4.782 2.292 5.346 2.256V2.616ZM13.516 15.126C12.76 15.126 12.196 14.94 11.824 14.568C11.464 14.184 11.284 13.656 11.284 12.984C11.284 12.444 11.428 12 11.716 11.652C12.016 11.304 12.364 11.028 12.76 10.824C13.168 10.62 13.702 10.404 14.362 10.176C15.034 9.948 15.532 9.738 15.856 9.546C16.18 9.354 16.342 9.096 16.342 8.772V7.656C16.342 6.96 16.192 6.486 15.892 6.234C15.604 5.97 15.196 5.838 14.668 5.838C13.828 5.838 13.234 6.054 12.886 6.486C13.126 6.546 13.324 6.672 13.48 6.864C13.648 7.056 13.732 7.296 13.732 7.584C13.732 7.884 13.636 8.124 13.444 8.304C13.252 8.472 13.006 8.556 12.706 8.556C12.37 8.556 12.118 8.454 11.95 8.25C11.782 8.034 11.698 7.776 11.698 7.476C11.698 7.188 11.764 6.948 11.896 6.756C12.04 6.564 12.25 6.372 12.526 6.18C12.814 5.976 13.18 5.808 13.624 5.676C14.068 5.544 14.554 5.478 15.082 5.478C16.018 5.478 16.726 5.7 17.206 6.144C17.506 6.42 17.704 6.756 17.8 7.152C17.908 7.536 17.962 8.046 17.962 8.682V13.686C17.962 13.986 18.004 14.202 18.088 14.334C18.172 14.466 18.316 14.532 18.52 14.532C18.664 14.532 18.796 14.502 18.916 14.442C19.048 14.37 19.186 14.274 19.33 14.154L19.528 14.46C19.216 14.7 18.946 14.874 18.718 14.982C18.502 15.078 18.226 15.126 17.89 15.126C17.314 15.126 16.912 14.982 16.684 14.694C16.456 14.406 16.342 14.016 16.342 13.524C15.982 14.124 15.568 14.544 15.1 14.784C14.632 15.012 14.104 15.126 13.516 15.126ZM14.308 14.406C15.1 14.406 15.778 13.95 16.342 13.038V9.51C16.234 9.678 16.084 9.816 15.892 9.924C15.7 10.032 15.406 10.176 15.01 10.356C14.554 10.548 14.182 10.734 13.894 10.914C13.618 11.082 13.378 11.316 13.174 11.616C12.97 11.916 12.868 12.3 12.868 12.768C12.868 13.308 13 13.716 13.264 13.992C13.528 14.268 13.876 14.406 14.308 14.406ZM28.8404 5.478C29.6444 5.478 30.3404 5.67 30.9284 6.054C31.4924 6.426 31.7744 6.888 31.7744 7.44C31.7744 7.752 31.6844 7.998 31.5044 8.178C31.3244 8.358 31.0964 8.448 30.8204 8.448C30.5444 8.448 30.3104 8.37 30.1184 8.214C29.9264 8.046 29.8304 7.824 29.8304 7.548C29.8304 7.296 29.9024 7.086 30.0464 6.918C30.1904 6.738 30.3704 6.618 30.5864 6.558C30.4664 6.342 30.2504 6.162 29.9384 6.018C29.6384 5.874 29.3144 5.802 28.9664 5.802C28.5224 5.802 28.1084 5.946 27.7244 6.234C27.3404 6.51 27.0224 6.978 26.7704 7.638C26.5184 8.286 26.3924 9.144 26.3924 10.212C26.3924 11.7 26.6324 12.786 27.1124 13.47C27.5924 14.142 28.2164 14.478 28.9844 14.478C29.5004 14.478 29.9864 14.328 30.4424 14.028C30.9104 13.728 31.2944 13.26 31.5944 12.624L31.9364 12.75C31.7324 13.434 31.3484 14.022 30.7844 14.514C30.2324 15.006 29.5124 15.252 28.6244 15.252C27.8804 15.252 27.2024 15.06 26.5904 14.676C25.9904 14.292 25.5164 13.74 25.1684 13.02C24.8204 12.288 24.6464 11.442 24.6464 10.482C24.6464 9.51 24.8204 8.646 25.1684 7.89C25.5284 7.134 26.0264 6.546 26.6624 6.126C27.2984 5.694 28.0244 5.478 28.8404 5.478ZM35.5063 15.126C34.7503 15.126 34.1863 14.94 33.8143 14.568C33.4543 14.184 33.2743 13.656 33.2743 12.984C33.2743 12.444 33.4183 12 33.7063 11.652C34.0063 11.304 34.3543 11.028 34.7503 10.824C35.1583 10.62 35.6923 10.404 36.3523 10.176C37.0243 9.948 37.5223 9.738 37.8463 9.546C38.1703 9.354 38.3323 9.096 38.3323 8.772V7.656C38.3323 6.96 38.1823 6.486 37.8823 6.234C37.5943 5.97 37.1863 5.838 36.6583 5.838C35.8183 5.838 35.2243 6.054 34.8763 6.486C35.1163 6.546 35.3143 6.672 35.4703 6.864C35.6383 7.056 35.7223 7.296 35.7223 7.584C35.7223 7.884 35.6263 8.124 35.4343 8.304C35.2423 8.472 34.9963 8.556 34.6963 8.556C34.3603 8.556 34.1083 8.454 33.9403 8.25C33.7723 8.034 33.6883 7.776 33.6883 7.476C33.6883 7.188 33.7543 6.948 33.8863 6.756C34.0303 6.564 34.2403 6.372 34.5163 6.18C34.8043 5.976 35.1703 5.808 35.6143 5.676C36.0583 5.544 36.5443 5.478 37.0723 5.478C38.0083 5.478 38.7163 5.7 39.1963 6.144C39.4963 6.42 39.6943 6.756 39.7903 7.152C39.8983 7.536 39.9523 8.046 39.9523 8.682V13.686C39.9523 13.986 39.9943 14.202 40.0783 14.334C40.1623 14.466 40.3063 14.532 40.5103 14.532C40.6543 14.532 40.7863 14.502 40.9063 14.442C41.0383 14.37 41.1763 14.274 41.3203 14.154L41.5183 14.46C41.2063 14.7 40.9363 14.874 40.7083 14.982C40.4923 15.078 40.2163 15.126 39.8803 15.126C39.3043 15.126 38.9023 14.982 38.6743 14.694C38.4463 14.406 38.3323 14.016 38.3323 13.524C37.9723 14.124 37.5583 14.544 37.0903 14.784C36.6223 15.012 36.0943 15.126 35.5063 15.126ZM36.2983 14.406C37.0903 14.406 37.7683 13.95 38.3323 13.038V9.51C38.2243 9.678 38.0743 9.816 37.8823 9.924C37.6903 10.032 37.3963 10.176 37.0003 10.356C36.5443 10.548 36.1723 10.734 35.8843 10.914C35.6083 11.082 35.3683 11.316 35.1643 11.616C34.9603 11.916 34.8583 12.3 34.8583 12.768C34.8583 13.308 34.9903 13.716 35.2543 13.992C35.5183 14.268 35.8663 14.406 36.2983 14.406ZM46.5051 0.923999C47.1291 0.923999 47.6511 1.086 48.0711 1.41C48.4431 1.71 48.6291 2.082 48.6291 2.526C48.6291 2.802 48.5391 3.03 48.3591 3.21C48.1791 3.39 47.9511 3.48 47.6751 3.48C47.3991 3.48 47.1651 3.396 46.9731 3.228C46.7811 3.048 46.6851 2.808 46.6851 2.508C46.6851 2.256 46.7511 2.052 46.8831 1.896C47.0271 1.74 47.2131 1.638 47.4411 1.59C47.4051 1.47 47.3091 1.374 47.1531 1.302C46.9971 1.23 46.7991 1.194 46.5591 1.194C46.2951 1.194 46.0611 1.254 45.8571 1.374C45.6531 1.494 45.4971 1.656 45.3891 1.86C45.2571 2.1 45.1671 2.454 45.1191 2.922C45.0831 3.39 45.0651 4.176 45.0651 5.28V5.748H46.9911V6.108H45.0651V13.146C45.0651 13.698 45.2211 14.082 45.5331 14.298C45.8571 14.514 46.3371 14.622 46.9731 14.622V15L46.5411 14.982C45.3171 14.946 44.5371 14.928 44.2011 14.928C43.8891 14.928 43.1811 14.952 42.0771 15V14.622C42.5811 14.622 42.9351 14.532 43.1391 14.352C43.3431 14.16 43.4451 13.818 43.4451 13.326V6.108H42.0051V5.748H43.4451C43.4451 4.692 43.5111 3.876 43.6431 3.3C43.7751 2.724 44.0151 2.232 44.3631 1.824C44.6031 1.548 44.9091 1.332 45.2811 1.176C45.6531 1.008 46.0611 0.923999 46.5051 0.923999ZM55.5488 12.84C55.3328 13.5 54.9248 14.07 54.3248 14.55C53.7368 15.018 53.0228 15.252 52.1828 15.252C51.3308 15.252 50.5928 15.06 49.9688 14.676C49.3448 14.28 48.8648 13.734 48.5288 13.038C48.2048 12.33 48.0428 11.514 48.0428 10.59C48.0428 9.546 48.2108 8.64 48.5468 7.872C48.8828 7.104 49.3568 6.516 49.9688 6.108C50.5808 5.688 51.2948 5.478 52.1108 5.478C53.1908 5.478 54.0188 5.808 54.5948 6.468C55.1828 7.116 55.4768 8.106 55.4768 9.438H49.8428C49.8068 9.774 49.7888 10.158 49.7888 10.59C49.7888 11.382 49.9148 12.072 50.1668 12.66C50.4308 13.248 50.7728 13.704 51.1928 14.028C51.6248 14.34 52.0748 14.496 52.5428 14.496C53.1188 14.496 53.6288 14.358 54.0728 14.082C54.5168 13.806 54.8888 13.344 55.1888 12.696L55.5488 12.84ZM52.0388 5.82C51.4748 5.82 50.9888 6.096 50.5808 6.648C50.1728 7.2 49.9208 8.016 49.8248 9.096H53.7488C53.7728 8.16 53.6348 7.38 53.3348 6.756C53.0468 6.132 52.6148 5.82 52.0388 5.82ZM54.0188 0.366C54.1868 0.509999 54.2708 0.677999 54.2708 0.87C54.2708 1.05 54.1868 1.254 54.0188 1.482C53.7788 1.782 53.4368 2.112 52.9928 2.472C52.9088 2.544 52.6868 2.748 52.3268 3.084C51.9788 3.408 51.5948 3.786 51.1748 4.218L50.9768 4.056C51.4208 3.348 51.8348 2.622 52.2188 1.878C52.4948 1.326 52.7348 0.911999 52.9388 0.635999C53.1308 0.371999 53.3588 0.239999 53.6228 0.239999C53.7908 0.239999 53.9228 0.281999 54.0188 0.366ZM59.7403 5.748H62.4043V6.108H59.7403V13.074C59.7403 13.614 59.8363 14.004 60.0283 14.244C60.2323 14.484 60.5203 14.604 60.8923 14.604C61.2643 14.604 61.5823 14.454 61.8463 14.154C62.1103 13.854 62.3323 13.362 62.5123 12.678L62.8723 12.768C62.5723 14.424 61.7923 15.252 60.5323 15.252C60.1243 15.252 59.7883 15.204 59.5243 15.108C59.2603 15.012 59.0263 14.862 58.8223 14.658C58.5583 14.394 58.3723 14.07 58.2643 13.686C58.1683 13.302 58.1203 12.786 58.1203 12.138V6.108H56.3923V5.748H58.1203V2.994C58.7923 2.97 59.3323 2.886 59.7403 2.742V5.748ZM71.0176 12.84C70.8016 13.5 70.3936 14.07 69.7936 14.55C69.2056 15.018 68.4916 15.252 67.6516 15.252C66.7996 15.252 66.0616 15.06 65.4376 14.676C64.8136 14.28 64.3336 13.734 63.9976 13.038C63.6736 12.33 63.5116 11.514 63.5116 10.59C63.5116 9.546 63.6796 8.64 64.0156 7.872C64.3516 7.104 64.8256 6.516 65.4376 6.108C66.0496 5.688 66.7636 5.478 67.5796 5.478C68.6596 5.478 69.4876 5.808 70.0636 6.468C70.6516 7.116 70.9456 8.106 70.9456 9.438H65.3116C65.2756 9.774 65.2576 10.158 65.2576 10.59C65.2576 11.382 65.3836 12.072 65.6356 12.66C65.8996 13.248 66.2416 13.704 66.6616 14.028C67.0936 14.34 67.5436 14.496 68.0116 14.496C68.5876 14.496 69.0976 14.358 69.5416 14.082C69.9856 13.806 70.3576 13.344 70.6576 12.696L71.0176 12.84ZM67.5076 5.82C66.9436 5.82 66.4576 6.096 66.0496 6.648C65.6416 7.2 65.3896 8.016 65.2936 9.096H69.2176C69.2416 8.16 69.1036 7.38 68.8036 6.756C68.5156 6.132 68.0836 5.82 67.5076 5.82ZM69.4876 0.366C69.6556 0.509999 69.7396 0.677999 69.7396 0.87C69.7396 1.05 69.6556 1.254 69.4876 1.482C69.2476 1.782 68.9056 2.112 68.4616 2.472C68.3776 2.544 68.1556 2.748 67.7956 3.084C67.4476 3.408 67.0636 3.786 66.6436 4.218L66.4456 4.056C66.8896 3.348 67.3036 2.622 67.6876 1.878C67.9636 1.326 68.2036 0.911999 68.4076 0.635999C68.5996 0.371999 68.8276 0.239999 69.0916 0.239999C69.2596 0.239999 69.3916 0.281999 69.4876 0.366ZM77.9091 5.478C78.3891 5.478 78.7791 5.616 79.0791 5.892C79.3911 6.168 79.5471 6.504 79.5471 6.9C79.5471 7.212 79.4511 7.482 79.2591 7.71C79.0791 7.926 78.8331 8.034 78.5211 8.034C78.2571 8.034 78.0291 7.95 77.8371 7.782C77.6571 7.614 77.5671 7.386 77.5671 7.098C77.5671 6.702 77.7711 6.378 78.1791 6.126C78.0951 6.006 77.9691 5.946 77.8011 5.946C77.3331 5.946 76.9071 6.132 76.5231 6.504C76.1391 6.864 75.8391 7.308 75.6231 7.836C75.4071 8.364 75.2991 8.862 75.2991 9.33V13.146C75.2991 13.698 75.4551 14.082 75.7671 14.298C76.0911 14.514 76.5711 14.622 77.2071 14.622V15L76.7751 14.982C75.5511 14.946 74.7711 14.928 74.4351 14.928C74.1231 14.928 73.4151 14.952 72.3111 15V14.622C72.8151 14.622 73.1691 14.532 73.3731 14.352C73.5771 14.16 73.6791 13.818 73.6791 13.326V7.692C73.6791 7.14 73.5771 6.738 73.3731 6.486C73.1691 6.234 72.8151 6.108 72.3111 6.108V5.73C72.6951 5.766 73.0671 5.784 73.4271 5.784C74.1831 5.784 74.8071 5.7 75.2991 5.532V7.782C75.5151 7.182 75.8571 6.648 76.3251 6.18C76.8051 5.712 77.3331 5.478 77.9091 5.478ZM82.3787 1.23C82.6907 1.23 82.9607 1.344 83.1887 1.572C83.4167 1.8 83.5307 2.07 83.5307 2.382C83.5307 2.694 83.4167 2.964 83.1887 3.192C82.9607 3.42 82.6907 3.534 82.3787 3.534C82.0667 3.534 81.7967 3.42 81.5687 3.192C81.3407 2.964 81.2267 2.694 81.2267 2.382C81.2267 2.07 81.3407 1.8 81.5687 1.572C81.7967 1.344 82.0667 1.23 82.3787 1.23ZM83.3147 13.326C83.3147 13.818 83.4167 14.16 83.6207 14.352C83.8247 14.532 84.1787 14.622 84.6827 14.622V15C83.5787 14.952 82.8527 14.928 82.5047 14.928C82.1567 14.928 81.4307 14.952 80.3267 15V14.622C80.8307 14.622 81.1847 14.532 81.3887 14.352C81.5927 14.16 81.6947 13.818 81.6947 13.326V7.692C81.6947 7.14 81.5927 6.738 81.3887 6.486C81.1847 6.234 80.8307 6.108 80.3267 6.108V5.73C80.7107 5.766 81.0827 5.784 81.4427 5.784C82.1987 5.784 82.8227 5.7 83.3147 5.532V13.326ZM88.0121 15.126C87.2561 15.126 86.6921 14.94 86.3201 14.568C85.9601 14.184 85.7801 13.656 85.7801 12.984C85.7801 12.444 85.9241 12 86.2121 11.652C86.5121 11.304 86.8601 11.028 87.2561 10.824C87.6641 10.62 88.1981 10.404 88.8581 10.176C89.5301 9.948 90.0281 9.738 90.3521 9.546C90.6761 9.354 90.8381 9.096 90.8381 8.772V7.656C90.8381 6.96 90.6881 6.486 90.3881 6.234C90.1001 5.97 89.6921 5.838 89.1641 5.838C88.3241 5.838 87.7301 6.054 87.3821 6.486C87.6221 6.546 87.8201 6.672 87.9761 6.864C88.1441 7.056 88.2281 7.296 88.2281 7.584C88.2281 7.884 88.1321 8.124 87.9401 8.304C87.7481 8.472 87.5021 8.556 87.2021 8.556C86.8661 8.556 86.6141 8.454 86.4461 8.25C86.2781 8.034 86.1941 7.776 86.1941 7.476C86.1941 7.188 86.2601 6.948 86.3921 6.756C86.5361 6.564 86.7461 6.372 87.0221 6.18C87.3101 5.976 87.6761 5.808 88.1201 5.676C88.5641 5.544 89.0501 5.478 89.5781 5.478C90.5141 5.478 91.2221 5.7 91.7021 6.144C92.0021 6.42 92.2001 6.756 92.2961 7.152C92.4041 7.536 92.4581 8.046 92.4581 8.682V13.686C92.4581 13.986 92.5001 14.202 92.5841 14.334C92.6681 14.466 92.8121 14.532 93.0161 14.532C93.1601 14.532 93.2921 14.502 93.4121 14.442C93.5441 14.37 93.6821 14.274 93.8261 14.154L94.0241 14.46C93.7121 14.7 93.4421 14.874 93.2141 14.982C92.9981 15.078 92.7221 15.126 92.3861 15.126C91.8101 15.126 91.4081 14.982 91.1801 14.694C90.9521 14.406 90.8381 14.016 90.8381 13.524C90.4781 14.124 90.0641 14.544 89.5961 14.784C89.1281 15.012 88.6001 15.126 88.0121 15.126ZM88.8041 14.406C89.5961 14.406 90.2741 13.95 90.8381 13.038V9.51C90.7301 9.678 90.5801 9.816 90.3881 9.924C90.1961 10.032 89.9021 10.176 89.5061 10.356C89.0501 10.548 88.6781 10.734 88.3901 10.914C88.1141 11.082 87.8741 11.316 87.6701 11.616C87.4661 11.916 87.3641 12.3 87.3641 12.768C87.3641 13.308 87.4961 13.716 87.7601 13.992C88.0241 14.268 88.3721 14.406 88.8041 14.406Z" fill="#58876D"/>
</svg>
