<svg width="32" height="32" viewBox="0 0 32 32" fill="none" xmlns="http://www.w3.org/2000/svg">
<g clip-path="url(#clip0)">
<path d="M27.4548 4.54517C24.5236 1.61401 20.6274 0 16.4819 0C16.4816 0 16.4807 0 16.4804 0C14.4301 0.000244141 12.4321 0.397217 10.5422 1.18018C8.65204 1.96313 6.95868 3.09521 5.50873 4.54517C2.57782 7.47607 0.96381 11.373 0.96381 15.5181C0.96381 17.99 1.56025 20.4465 2.69037 22.6353L0.0819739 30.0869C-0.101864 30.6125 0.0282629 31.1838 0.422306 31.5776C0.697941 31.8535 1.06073 32 1.43378 32C1.59369 32 1.75531 31.9731 1.91303 31.918L9.36469 29.3098C11.5534 30.4399 14.01 31.0364 16.4819 31.0364C20.6269 31.0364 24.5236 29.4221 27.4548 26.4912C30.3857 23.5603 31.9999 19.6633 31.9999 15.5183C31.9999 11.373 30.3859 7.47607 27.4548 4.54517ZM26.1276 25.1641C23.5512 27.7407 20.1254 29.1594 16.4819 29.1594C14.2529 29.1594 12.0385 28.6082 10.0781 27.5647C9.7226 27.3757 9.30243 27.3433 8.92524 27.4753L2.15522 29.8447L4.52485 23.0747C4.65693 22.697 4.62421 22.2769 4.43525 21.9216C3.39203 19.9617 2.84052 17.7473 2.84052 15.5181C2.84052 11.8745 4.25946 8.44873 6.83588 5.87231C9.41205 3.29614 12.8373 1.8772 16.4807 1.87671H16.4819C20.1257 1.87671 23.5512 3.29565 26.1276 5.87231C28.7043 8.44873 30.1232 11.8743 30.1232 15.5181C30.1232 19.1619 28.7043 22.5876 26.1276 25.1641Z" fill="#58876D"/>
<path d="M22.249 16.9043C21.5352 16.1904 20.3735 16.1904 19.6597 16.9043L18.8789 17.6851C16.9402 16.6287 15.3713 15.0598 14.3147 13.1211L15.0955 12.3403C15.8096 11.6265 15.8096 10.4648 15.0955 9.75098L12.9915 7.64697C12.2776 6.93311 11.116 6.93311 10.4021 7.64697L8.719 9.33008C7.75489 10.2942 7.70679 11.9517 8.5835 13.9973C9.34473 15.7734 10.7378 17.7256 12.5061 19.4939C14.2744 21.2622 16.2266 22.6553 18.0027 23.4165C18.9746 23.833 19.8587 24.0408 20.6226 24.0408C21.4666 24.0408 22.1638 23.7871 22.6699 23.281L24.353 21.5977V21.5979C24.699 21.252 24.8894 20.7922 24.8894 20.3032C24.8894 19.814 24.699 19.3542 24.353 19.0085L22.249 16.9043ZM21.3428 21.9539C21.0676 22.229 20.2214 22.3254 18.7422 21.6917C17.1802 21.0222 15.4368 19.7703 13.8333 18.1667C12.2297 16.5632 10.978 14.8201 10.3086 13.2581C9.67457 11.7788 9.771 10.9324 10.0461 10.6572L11.697 9.00635L13.7361 11.0457L12.7588 12.0232C12.3169 12.4651 12.2102 13.1353 12.4937 13.6909C13.7786 16.2104 15.7896 18.2214 18.3091 19.5063C18.865 19.7898 19.5352 19.6833 19.9771 19.2412L20.9544 18.2639L22.9937 20.3032L21.3428 21.9539Z" fill="#58876D"/>
</g>
<defs>
<clipPath id="clip0">
<rect width="32" height="32" fill="white"/>
</clipPath>
</defs>
</svg>
